<svg xmlns="http://www.w3.org/2000/svg" viewBox="0 0 500 500"><g id="freepik--Shadow--inject-7"><ellipse cx="250" cy="411.63" rx="145.97" ry="15.09" style="fill:#ebebeb"></ellipse><ellipse cx="324.96" cy="436.96" rx="127.26" ry="22.75" style="fill:#ebebeb"></ellipse></g><g id="freepik--Floor--inject-7"><polygon points="34.85 389.63 88.64 389.38 142.43 389.29 250 389.13 357.57 389.29 411.36 389.38 465.15 389.63 411.36 389.87 357.57 389.96 250 390.12 142.43 389.96 88.64 389.87 34.85 389.63" style="fill:#263238"></polygon></g><g id="freepik--Plant--inject-7"><path d="M84.49,313.78c6.35-13,17.46-19.75,30-16s14.46,21.16,5.12,25.57-18.7-8.46-23.64-11.11S84.49,313.78,84.49,313.78Z" style="fill:#84A98B"></path><path d="M78.34,348.52c0-1.57.1-3.15.15-4.72q.17-4.71.34-9.42C79,328.63,79.66,323,82,317.7a25.83,25.83,0,0,1,10.07-11.61,21.14,21.14,0,0,1,5.29-2.29,12.43,12.43,0,0,1,6.18-3.39,25.32,25.32,0,0,1,8.81-.22c.11,0,.1.18,0,.16a21.16,21.16,0,0,0-8.34.6,18.16,18.16,0,0,0-3.35,1.3,15.59,15.59,0,0,0-1.94,1.24,18,18,0,0,1,7.65.07,16.47,16.47,0,0,1,2.65.88,7.4,7.4,0,0,1,2.09-.18,12.38,12.38,0,0,1,2.71.38,20.55,20.55,0,0,1,5.15,2.25.09.09,0,0,1-.08.15,19.24,19.24,0,0,0-5-1.9,17.2,17.2,0,0,0-2.59-.38,13.83,13.83,0,0,0-1.44,0,16.6,16.6,0,0,1,8.1,8.07c0,.1-.1.18-.14.08a15.25,15.25,0,0,0-10.32-8.27c-.28-.07-.56-.11-.84-.16.1.4.08.87.14,1.26.08.64.19,1.27.31,1.9a33.6,33.6,0,0,0,1,3.82,31.26,31.26,0,0,0,1.52,3.7,17.34,17.34,0,0,0,2.12,3.57.09.09,0,1,1-.14.1c-.75-1.18-1.62-2.26-2.31-3.49a25.23,25.23,0,0,1-2.81-7.55c-.14-.71-.25-1.41-.33-2.13a4.65,4.65,0,0,1-.08-1.29,17,17,0,0,0-4.45-.09c.56,3.11,1.15,6.36,2.9,9.06.06.09-.1.17-.15.08a37.18,37.18,0,0,1-2.15-4.45,17.2,17.2,0,0,1-1.07-4.64,20.61,20.61,0,0,0-7.35,2.46,24.28,24.28,0,0,0-9.79,10.71,40.29,40.29,0,0,0-3.63,15.35c-.42,6.67-.5,13.38-1.17,20,0,.44-.73.58-.82.09A23.73,23.73,0,0,1,78.34,348.52Z" style="fill:#263238"></path><path d="M93,305a7.3,7.3,0,0,1,1.44-1.33c.52-.43,1.05-.85,1.61-1.23a12,12,0,0,1,3.61-1.67c.1,0,.14.14,0,.16a9.56,9.56,0,0,0-3.56,1.75c-.53.39-1,.81-1.54,1.24a9.42,9.42,0,0,1-1.45,1.24C93.07,305.25,93,305.14,93,305Z" style="fill:#263238"></path><path d="M113.28,309.77a36.44,36.44,0,0,1,2.91,3.86,23,23,0,0,1,2.17,4.29s0,.07-.08,0a50.85,50.85,0,0,0-5.12-8.06C113.09,309.8,113.21,309.69,113.28,309.77Z" style="fill:#263238"></path><path d="M99.62,308.48a9.21,9.21,0,0,0,.72,2.36,14,14,0,0,0,1.21,2.09c0,.05,0,.09-.08.06a8.58,8.58,0,0,1-2-4.47C99.44,308.42,99.6,308.37,99.62,308.48Z" style="fill:#263238"></path><path d="M79.23,314.1s-9-11.3-26.34-7.29c-16.5,3.8-24.11,34.05-7.44,37.66s13.73-24.36,19.8-29.11C69.71,311.87,76.11,312.62,79.23,314.1Z" style="fill:#84A98B"></path><path d="M39.48,323.32a33.91,33.91,0,0,1,3.58-2.74,16,16,0,0,1,3.81-1.9,23.38,23.38,0,0,1,2.26-2.91,22.37,22.37,0,0,1,5.25-4.18l-.52,0a25.42,25.42,0,0,0-2.76,0,15.48,15.48,0,0,0-5.35,1.33c-.1,0-.17-.11-.07-.15A24.35,24.35,0,0,1,51,311.16a14.52,14.52,0,0,1,2.71-.23,14.13,14.13,0,0,1,1.46.08l.28,0a23.79,23.79,0,0,1,5-1.84l-.48-.13a25,25,0,0,0-2.57-.42,20.57,20.57,0,0,0-5.2.08c-.1,0-.13-.15,0-.16a33,33,0,0,1,5.25-.22,22.47,22.47,0,0,1,4.37.57,22.15,22.15,0,0,1,3.16-.36c6-.26,12.65,2,16.37,7s4.46,11.62,5.11,17.62a133.74,133.74,0,0,1,.67,25.22c0,.5-.74.41-.75-.06-.23-7.13-.48-14.27-1.16-21.37-.32-3.29-.67-6.6-1.22-9.86A29,29,0,0,0,81.6,319a14.79,14.79,0,0,0-5.86-6.3,19.68,19.68,0,0,0-8.29-2.55,22.18,22.18,0,0,0-7.79.73,5.23,5.23,0,0,1,.05,1.53,9.41,9.41,0,0,1-.38,1.9A10,10,0,0,1,58.6,316c-.32.6-.72,1.13-1.08,1.7-.06.09-.2,0-.14-.09a8,8,0,0,0,1.35-3.43,17.25,17.25,0,0,0,.21-1.76c0-.45,0-.9,0-1.35a23.12,23.12,0,0,0-7.58,4c-.42.34-.82.7-1.22,1.07a8.35,8.35,0,0,1,1.47,1.8,18.56,18.56,0,0,1,1.54,2.75,23.35,23.35,0,0,1,1.61,6c0,.1-.15.13-.17,0a17.43,17.43,0,0,0-2-5.72,21.72,21.72,0,0,0-1.54-2.54c-.29-.42-.59-.83-.91-1.23-.17-.22-.36-.44-.52-.67a24,24,0,0,0-4.92,6.93l0,0a11.52,11.52,0,0,1,2,2.92,27.37,27.37,0,0,1,1.62,3.47A57.45,57.45,0,0,1,50.49,337c0,.1-.14.13-.16,0a29.64,29.64,0,0,0-2.46-7c-.52-1.09-1.07-2.16-1.64-3.22a27.64,27.64,0,0,1-1.63-3,22,22,0,0,0-2,8,.09.09,0,0,1-.17,0,28,28,0,0,1,3.9-12.33c-1.07.45-2.13.88-3.15,1.43a18.21,18.21,0,0,0-3.61,2.54C39.51,323.52,39.4,323.39,39.48,323.32Z" style="fill:#263238"></path><path d="M52.21,324c.52,1.72,1.18,3.38,1.65,5.11a19.55,19.55,0,0,1,.76,5.1,0,0,0,0,1-.08,0A49.38,49.38,0,0,0,52.05,324,.08.08,0,1,1,52.21,324Z" style="fill:#263238"></path><path d="M41.22,319.71a9.63,9.63,0,0,1,2.3-1.64,16.13,16.13,0,0,1,2.66-.94c.1,0,.13.14,0,.16a10.64,10.64,0,0,0-2.56,1.06,17.77,17.77,0,0,0-2.36,1.45A.06.06,0,0,1,41.22,319.71Z" style="fill:#263238"></path><path d="M70.68,299S69,278.71,53.93,272.13c-12.6-5.49-19.81,8.67-10.9,17.34C50.23,296.48,61.79,293.31,70.68,299Z" style="fill:#84A98B"></path><path d="M45.82,276.06a64.24,64.24,0,0,1,6.71,3.18,51.71,51.71,0,0,1,5.21,3.46c-.25-.51-.47-1.05-.72-1.55-.4-.79-.82-1.55-1.28-2.3a21.51,21.51,0,0,0-3.33-4.21c-.08-.07.05-.19.12-.11A33,33,0,0,1,56,278.6a26,26,0,0,1,1.44,2.3,9.36,9.36,0,0,1,1,2.34l.17.12a50,50,0,0,1,7.2,7.05c0-.2-.08-.4-.13-.58-.28-1-.59-2-.92-2.95A25.21,25.21,0,0,0,62.08,281c-.06-.09.09-.17.14-.08a47.5,47.5,0,0,1,3.16,5.77,21.29,21.29,0,0,1,1,3,11.7,11.7,0,0,1,.49,2c.66.83,1.31,1.68,1.92,2.54,6.48,9.23,9.73,20.38,10.51,31.54a98.15,98.15,0,0,1,.17,10,63.61,63.61,0,0,1-.89,10c0,.21-.37.15-.36-.06.07-2.93.38-5.85.43-8.79a86.34,86.34,0,0,0-.28-8.81,81.81,81.81,0,0,0-3.29-17.27,61.82,61.82,0,0,0-7.68-16.24c-.63-.13-1.26-.3-1.89-.46s-1.5-.39-2.25-.6A22.08,22.08,0,0,1,59.09,292c-.1-.05,0-.2.09-.14a13.64,13.64,0,0,0,4.26,1.47c1.18.24,2.41.39,3.59.66a56,56,0,0,0-3.51-4.61,26.38,26.38,0,0,1-8.58-.64,35.57,35.57,0,0,1-4.4-1.37c-1.51-.58-2.94-1.33-4.43-2-.11,0,0-.22.07-.15a25.08,25.08,0,0,0,8.7,2.84,54.18,54.18,0,0,0,8.14.68c-1.07-1.23-2.18-2.43-3.36-3.56-4-3.77-8.67-7.24-13.89-9C45.67,276.19,45.72,276,45.82,276.06Z" style="fill:#263238"></path><path d="M58.1,276.12A24.91,24.91,0,0,1,60,278.83,14.82,14.82,0,0,1,61.28,282s-.05.06-.06,0c-.5-1-.93-2-1.44-3a15.61,15.61,0,0,0-1.8-2.74C57.91,276.16,58,276,58.1,276.12Z" style="fill:#263238"></path><path d="M44.07,282.88a15,15,0,0,0,3.09,1.29,26.13,26.13,0,0,0,3.15.85,0,0,0,0,1,0,.09,15.29,15.29,0,0,1-3.27-.72A25.17,25.17,0,0,1,44,283C43.88,283,44,282.83,44.07,282.88Z" style="fill:#263238"></path><path d="M82.42,295.36c.09.87,2.28-7.37,15-14.69,11.59-6.65,25.42-23.95,14.06-34.87C102.34,237,78.18,256.2,82.42,295.36Z" style="fill:#84A98B"></path><path d="M73.63,342.64a224.8,224.8,0,0,1,2-25.66,115.34,115.34,0,0,1,5.39-23c1-2.68,2-5.32,3.21-7.92a19.08,19.08,0,0,1,0-3c.06-1.3.18-2.6.3-3.9s.25-2.59.41-3.88.42-2.58.48-3.87c0-.12.19-.09.16,0a28.09,28.09,0,0,0-.46,4.11Q85,277.43,85,279.3c0,1.26,0,2.52,0,3.77,0,.45,0,.94,0,1.42q1.8-3.81,3.88-7.46c-.86-5.29.26-10.82,1.34-16,0-.1.18,0,.16.05a45.17,45.17,0,0,0-.84,8.2c-.05,2.17,0,4.35.06,6.52.3-.52.61-1,.92-1.56,1.66-2.7,3.43-5.35,5.3-7.92a12.56,12.56,0,0,1,.13-3.77,29.17,29.17,0,0,1,.92-4.12c.41-1.35.88-2.68,1.41-4s1.29-2.61,1.83-4c0-.11.21,0,.15.07a19,19,0,0,0-1.6,4,34.07,34.07,0,0,0-1,4c-.27,1.35-.5,2.69-.68,4.05-.13.9-.21,1.83-.36,2.73a97.23,97.23,0,0,1,8.93-10.39c.08-.08.19,0,.12.12a117.3,117.3,0,0,0-13,17.64c-.14.24-.27.48-.41.71.71-.44,1.51-.79,2.17-1.15l3.73-2.05,3.61-2c.62-.35,1.23-.71,1.86-1a13.81,13.81,0,0,0,2.16-1.2c.1-.07.2.08.1.14-1.23.67-2.32,1.67-3.5,2.43s-2.41,1.5-3.64,2.19c-2.27,1.26-4.74,2.17-7,3.48q-2.33,4.06-4.29,8.33c1.35-.87,2.74-1.7,4.14-2.48.91-.51,1.81-1,2.73-1.49A13.93,13.93,0,0,0,96.91,277a.08.08,0,1,1,.11.12,24.55,24.55,0,0,1-4.9,3.41c-1.64.95-3.29,1.88-5,2.71-1.36,3-2.6,6-3.69,9.14-5.37,15.2-7.35,31.35-8.29,47.38-.28,4.78-.43,9.56-.48,14.35s.19,9.55.18,14.33c0,.14-.23.17-.25,0-.58-4.24-.68-8.55-.86-12.82S73.54,347,73.63,342.64Z" style="fill:#263238"></path><path d="M96.81,273.79a60.56,60.56,0,0,0,6.79-3.51,69.77,69.77,0,0,0,6.43-4.09s.08,0,0,.06a54,54,0,0,1-6.18,4.33,62.54,62.54,0,0,1-7,3.35C96.8,274,96.72,273.83,96.81,273.79Z" style="fill:#263238"></path><path d="M93.12,256.6c.19-.74.42-1.47.67-2.2a.05.05,0,0,1,0-.08c.16-.41.33-.82.5-1.23,0-.05,0-.11.06-.15l.09-.23s0,0,0,0l-.12.43a2,2,0,0,1-.07.23A59.7,59.7,0,0,0,92.37,262c0,.1-.16.1-.15,0A28.61,28.61,0,0,1,93.12,256.6Z" style="fill:#263238"></path><polygon points="60.15 345.72 61.06 356.51 63.85 389.43 93.7 389.43 96.49 356.51 97.4 345.72 60.15 345.72" style="fill:#455a64"></polygon><polygon points="60.15 345.72 61.06 356.51 96.49 356.51 97.4 345.72 60.15 345.72" style="fill:#263238"></polygon><rect x="57.22" y="341.39" width="43.11" height="10.35" transform="translate(157.55 693.13) rotate(180)" style="fill:#455a64"></rect></g><g id="freepik--Chair--inject-7"><path d="M436.45,420.69S402,437,356.75,437c-48.05,0-71.35-15.65-71.35-15.65-35.09-27.55-38.71-68.37-13.68-93.12,15.15-15,26.23-11.95,44.55-14.33h.05a54.07,54.07,0,0,0,18.58-5.46c18.86-9.95,29.5-33.42,45.37-53.17q3-3.72,6.21-7.2c13-13.94,39-14.39,52.61,5.2C473.61,303,472.64,377.09,436.45,420.69Z" style="fill:#84A98B"></path><g style="opacity:0.1"><path d="M436.45,420.69S402,437,356.75,437c-48.05,0-71.35-15.65-71.35-15.65-35.09-27.55-38.71-68.37-13.68-93.12,15.15-15,26.23-11.95,44.55-14.33h.05a54.07,54.07,0,0,0,18.58-5.46c18.86-9.95,29.5-33.42,45.37-53.17q3-3.72,6.21-7.2c13-13.94,39-14.39,52.61,5.2C473.61,303,472.64,377.09,436.45,420.69Z"></path></g><path d="M340,380.55c46,11.32,88.17-14.52,91.95-73.75,2.77-43.37-28.08-63.85-51.72-51.57C364.4,275,353.77,298.45,334.9,308.4a54.07,54.07,0,0,1-18.58,5.46h-.06l-1.95.24C293.32,327.24,304.28,371.76,340,380.55Z" style="opacity:0.1"></path></g><g id="freepik--Character--inject-7"><path d="M298.21,458.6c2.26-.37,57.29-29.4,58.69-31.83.53-.92-3.23-9.18-8.06-19-1-2.13-2.13-4.32-3.25-6.54-7.24-14.41-15.27-29.54-15.27-29.54L293.46,391l16.28,29,3.57,6.37S297.22,446.89,296,449.72,296,459,298.21,458.6Z" style="fill:#f7a9a0"></path><path d="M298.21,458.6c2.26-.37,57.28-29.39,58.68-31.83.48-.81-2.39-7.33-6.38-15.62h0c-2.23,3.09-34.58,28.54-45,30.62-4.27.85,2.73-8.84,3-9.25h0c-4.85,6.3-11.74,15.37-12.54,17.19C294.73,452.55,295.94,459,298.21,458.6Z" style="fill:#263238"></path><path d="M307.88,433.31s4.87-3.91,13.68.14" style="fill:#263238"></path><path d="M271.84,345.44c2.59,16.88,34.9,74.34,34.9,74.34l39.39-21.36-23.86-41.31s52.18,8.76,72.58,1.29c21.77-8,19.86-33.71,19.86-33.71L363,316.08a6.61,6.61,0,0,1-7.42,4.1c-20.07-2.51-47.56-3-58.18-2.38C283.7,318.65,269.47,330,271.84,345.44Z" style="fill:#37474f"></path><path d="M311,342.55a39.35,39.35,0,0,1,3.22,3.95c1.11,1.39,2.23,2.76,3.33,4.15l0,0c-.2-.41-.39-.82-.6-1.22-.71-1.39-1.28-2.83-2.11-4.15-.05-.08.08-.16.13-.08.85,1.31,1.83,2.56,2.56,3.94.35.65.68,1.31,1,2,.17.36.34.73.49,1.11a4.33,4.33,0,0,1,.21.54c.5.64,1,1.29,1.46,1.94,1.05,1.47,2,3,3.06,4.46.05.08-.07.15-.13.08-1.07-1.36-2.28-2.62-3.37-4s-2.17-2.79-3.22-4.22-2-2.79-3-4.18a41.74,41.74,0,0,1-3.08-4.31C310.93,342.57,311,342.51,311,342.55Z" style="fill:#263238"></path><path d="M304.71,410.68c1-.71,2.13-1.36,3.21-2s2.12-1.3,3.19-1.94c2.19-1.31,4.4-2.58,6.61-3.86,4.43-2.56,8.91-5.06,13.37-7.57,2.51-1.4,5-2.76,7.55-4.14.05,0,.11,0,.06.08-4.29,2.66-8.6,5.3-12.95,7.88s-8.84,5.17-13.33,7.65c-1.25.69-2.51,1.36-3.77,2s-2.55,1.38-3.87,2C304.72,410.81,304.65,410.72,304.71,410.68Z" style="fill:#263238"></path><path d="M407.49,326a26.88,26.88,0,0,1-6.76,18.59,26.12,26.12,0,0,1-8.08,5.93,31.88,31.88,0,0,1-9.69,2.64,126.51,126.51,0,0,1-20.23.85c-6.76-.2-13.52-.72-20.23-1.55a160.29,160.29,0,0,1-19.95-3.57c-1.63-.42-3.26-.88-4.86-1.41-.8-.27-1.59-.55-2.37-.85a13.19,13.19,0,0,0-2.46-.85,3.43,3.43,0,0,0-1.39,0,1.55,1.55,0,0,0-1.12,1,2,2,0,0,0-.11.72,2,2,0,0,0,.13.72c.14.43.32.82.49,1.21.72,1.55,1.51,3,2.31,4.55,6.51,11.9,13.52,23.5,20.55,35.08q-5.13-8.76-10.16-17.6c-3.37-5.88-6.73-11.76-9.89-17.75-.78-1.49-1.57-3-2.25-4.53A11,11,0,0,1,311,348a1.51,1.51,0,0,1-.11-.51,1.78,1.78,0,0,1,.09-.53c.18-.68,1-.76,1.81-.61a11.81,11.81,0,0,1,2.33.82c.8.31,1.6.6,2.41.87,1.61.54,3.25,1,4.89,1.44a158.77,158.77,0,0,0,20,3.65c6.74.81,13.52,1.31,20.3,1.49a121.22,121.22,0,0,0,20.33-1,32.59,32.59,0,0,0,9.81-2.78,26.25,26.25,0,0,0,8.14-6.11A25.38,25.38,0,0,0,406,336,27.75,27.75,0,0,0,407.49,326Z" style="fill:#263238"></path><path d="M347.67,464.67c2.14-.83,49.91-40.68,50.77-43.35.33-1-5.06-8.31-11.84-16.94-1.46-1.87-3-3.78-4.54-5.72C372,386.07,361,373,361,373l-32,26.57,22,25,4.82,5.49s-11.47,23.44-12.1,26.47S345.54,465.51,347.67,464.67Z" style="fill:#f7a9a0"></path><path d="M347.67,464.67c2.14-.83,49.91-40.68,50.77-43.35.29-.89-3.87-6.67-9.5-13.95h0c-1.55,3.49-27.89,35.11-37.65,39.32-4,1.72.83-9.22,1-9.68l0,0c-3.42,7.16-8.28,17.48-8.68,19.42C343,459.47,345.53,465.51,347.67,464.67Z" style="fill:#263238"></path><path d="M351.86,437.92s3.95-4.84,13.41-2.71" style="fill:#263238"></path><path d="M295,350.44c2.58,16.88,45.32,64.86,50.26,70.37l1.12,1.25,33.95-27.24-.41-.5-23.45-28.39s37.47,14.67,54.88-8.1c6.93-9.06,3.36-33.14,3.36-33.14L373.17,318s-1.05,7.11-6.87,6.39c-20.06-2.51-35.82-4.74-46.44-4.09C306.15,321.1,292.62,335,295,350.44Z" style="fill:#37474f"></path><path d="M365.17,324.19c-12.89-1.84-25.83-3.52-38.86-4.11-1.63-.06-3.27-.09-4.9-.07a31.38,31.38,0,0,0-4.92.39,14.6,14.6,0,0,0-2.39.69c-.78.27-1.54.57-2.29.91a32.32,32.32,0,0,0-4.35,2.31,30.14,30.14,0,0,0-7.4,6.48,24.81,24.81,0,0,0-5.55,13.55c-.06.41-.07.82-.09,1.23s0,.83,0,1.25a18.6,18.6,0,0,0,.25,2.48,38.76,38.76,0,0,0,3.23,9.29,121.28,121.28,0,0,0,10.06,16.79c3.73,5.35,7.69,10.53,11.77,15.61s8.33,10,12.62,14.92c-4.2-5-8.34-10-12.34-15.14s-7.93-10.34-11.59-15.71a128,128,0,0,1-9.92-16.75,38.11,38.11,0,0,1-3.14-9.13,17.3,17.3,0,0,1-.24-2.37c0-.79.05-1.61.12-2.4a25.25,25.25,0,0,1,.92-4.72,24.43,24.43,0,0,1,4.47-8.46,29,29,0,0,1,7.21-6.36,31.7,31.7,0,0,1,4.26-2.28c.73-.33,1.48-.63,2.24-.9a15.06,15.06,0,0,1,2.3-.68,33.32,33.32,0,0,1,4.81-.4c1.62,0,3.24,0,4.87,0,6.5.19,13,.75,19.47,1.38S358.71,323.37,365.17,324.19Z" style="fill:#263238"></path><path d="M343.78,349.2a39.51,39.51,0,0,1,3.21,3.95c1.11,1.38,2.23,2.75,3.33,4.14l0,0c-.2-.41-.39-.82-.6-1.22-.7-1.39-1.28-2.83-2.1-4.15,0-.08.07-.16.12-.08.85,1.31,1.83,2.56,2.57,3.94.34.66.67,1.32,1,2,.16.37.34.73.49,1.11.07.17.15.35.21.54.49.64,1,1.29,1.45,2,1.06,1.46,2,3,3.06,4.45.06.08-.07.16-.13.08-1.07-1.36-2.28-2.62-3.37-4s-2.17-2.79-3.22-4.21-2-2.8-3-4.19a43.17,43.17,0,0,1-3.08-4.3A.06.06,0,0,1,343.78,349.2Z" style="fill:#263238"></path><path d="M342.57,414.28c.9-.87,1.88-1.69,2.83-2.52l2.82-2.45c1.94-1.66,3.91-3.28,5.87-4.91,3.94-3.27,7.92-6.49,11.91-9.71,2.23-1.81,4.5-3.57,6.74-5.36,0,0,.11,0,.07.07q-5.67,5-11.44,10t-11.85,9.79c-1.12.88-2.24,1.76-3.37,2.62s-2.29,1.8-3.49,2.61C342.61,414.41,342.52,414.33,342.57,414.28Z" style="fill:#263238"></path><path d="M408.93,326.73a42,42,0,0,1,.28,11.14,29.68,29.68,0,0,1-3.08,10.63,19.7,19.7,0,0,1-7.54,7.9A24.08,24.08,0,0,1,388,359.34a56.62,56.62,0,0,1-11.11-.42,105,105,0,0,1-11-2,161.35,161.35,0,0,1-21.32-6.62l-.26-.11-.13.23a7.88,7.88,0,0,0-.93,2.82,9.35,9.35,0,0,0,0,2.94,11.33,11.33,0,0,0,.88,2.79,21.15,21.15,0,0,0,1.55,2.45c2.23,3.1,4.65,6,7.08,9s4.9,5.82,7.4,8.68,5,5.71,7.56,8.54c-2.48-2.88-4.93-5.79-7.37-8.7s-4.86-5.84-7.26-8.79-4.77-5.92-6.95-9a19.75,19.75,0,0,1-1.46-2.38,11.14,11.14,0,0,1-.82-2.63,8.34,8.34,0,0,1,.82-5.31l-.39.12a158.85,158.85,0,0,0,21.39,6.73,106.16,106.16,0,0,0,11,2,57.82,57.82,0,0,0,11.24.37,24,24,0,0,0,10.79-3.1,20.24,20.24,0,0,0,7.63-8.18,28.87,28.87,0,0,0,2.94-10.79A42.21,42.21,0,0,0,408.93,326.73Z" style="fill:#263238"></path><path d="M391.06,325.37c.29,2,.7,3.94,1.16,5.89a13.74,13.74,0,0,0,1.93,5,11.1,11.1,0,0,0,3.91,3.18,24.16,24.16,0,0,0,2.69,1.23,20.44,20.44,0,0,1,2.77,1.15.2.2,0,0,1-.09.37,12.83,12.83,0,0,1-3.12-.59,19.8,19.8,0,0,1-2.88-1,11,11,0,0,1-4.26-3.49,13,13,0,0,1-1.89-5.42,31.48,31.48,0,0,1-.48-6.28C390.8,325.2,391,325.2,391.06,325.37Z" style="fill:#263238"></path><path d="M388,219.47s8.91-4,16.1,1.33,9.84,17.26,7.74,26.9,5.32,16.73,5.58,24.05-4.77,10.27-6.68,13.94c-2.19,4.2,3.86,20.26-15.06,22.31-23.67,2.56-31.4-12.5-28.05-24.15,1.64-5.71,5.25-9.56,5.58-14.26s-2.69-8.72-.47-14.53,4.45-4.81,6.17-14.08S379.6,220.38,388,219.47Z" style="fill:#263238"></path><path d="M402.49,220.45a28.89,28.89,0,0,1,9.92,14.16,26.47,26.47,0,0,1,1.28,8.64c-.08,3.83-.95,7.35.16,11.16,1.78,6.11,5.92,11.42,5.16,18a16.4,16.4,0,0,1-3.51,8.37c-2.26,2.81-5.32,4.93-7.27,8-.08.13-.28,0-.2-.13,1.64-2.72,4.09-4.7,6.2-7.08a16.68,16.68,0,0,0,4.29-10.08c.34-6.29-3.74-11.48-5.36-17.36a20.11,20.11,0,0,1-.28-7.88,28.56,28.56,0,0,0-.43-9.53,30.6,30.6,0,0,0-10-16.18S402.44,220.41,402.49,220.45Z" style="fill:#263238"></path><path d="M406.43,292.45s0,0,0,0S406.4,292.45,406.43,292.45Z" style="fill:#263238"></path><path d="M367.83,282.18c.82-2.76,2.5-5.18,3.31-7.92,1-3.31.41-6.73,0-10.08-.53-4.78-.06-9.22,2.39-13.49,1.58-2.76,3.44-5.3,4.68-8.24a35.71,35.71,0,0,0,2.62-10c0-.07.12-.06.12,0a32.34,32.34,0,0,1-4.31,14.18c-1.48,2.54-3.27,4.9-4.24,7.7a23.79,23.79,0,0,0-.77,10.21,39.32,39.32,0,0,1,.29,7,19.89,19.89,0,0,1-2.21,6.73,24.18,24.18,0,0,0-1.37,17.78c0,.1-.15.16-.19.05A23.05,23.05,0,0,1,367.83,282.18Z" style="fill:#263238"></path><path d="M418.09,271c.22-5.18-3.09-9-4.9-13.64-1.37-3.52-2.2-7.22-1.34-10.9,0-.06.12,0,.11,0-.72,5.37,1.14,10.45,3.75,15.21,1.74,3.17,3.14,6.19,2.86,9.81s-1.93,6.4-4.19,9.17c-1.61,2-3.18,3.8-4,6.22a26.65,26.65,0,0,0-1,7.49c0,.13-.21.11-.21,0,0-3.9.23-7.65,2.46-11C414.41,279.16,417.87,276.22,418.09,271Z" style="fill:#263238"></path><path d="M367.24,278.44a32.1,32.1,0,0,1,3.38-4.76c2.22-2.74,2.74-5.07,2.37-8.57a.07.07,0,0,1,.13,0c.71,2.92.74,5.3-1.16,7.77-2.65,3.46-5.22,6.59-6.06,10.91-1.5,7.66,2.28,15.23,9,19.73.1.06,0,.2-.1.14a19.37,19.37,0,0,1-9.78-15.37A18.55,18.55,0,0,1,367.24,278.44Z" style="fill:#263238"></path><path d="M384.34,270.11c-4.22,19.78-10.69,36.45-16.14,40.32-4.4,3.13-41.3,10.38-42.59,10.52-3.18.32-9.18-20.56-7-23.21.5-.61,36-3.93,37.12-5.08s11.67-15.24,20.13-26.07C381.76,259,386.68,259.14,384.34,270.11Z" style="fill:#f7a9a0"></path><path d="M331.94,318.59a78.8,78.8,0,0,1-9.37,3.85c-2.56.74-10,2.67-11.07-.06-.75-1.87,3.48-3.52,6.44-4.75,1.57-.65,3.49-2.29,3-3.29-.8-1.76-4.82,0-7.47,1.54-5.11,3-11.92,8.32-15.05,5.72-1.17-1,.2-2.76,2.2-4.51-3.25,2-6.72,3.71-8.08,2.67a1.73,1.73,0,0,1-.38-2.33,2.28,2.28,0,0,1-2.51-.39c-1.06-1.11-.54-2.74.62-4.41a1.25,1.25,0,0,1-1-.64c-2.24-3.41,9-13.21,12.85-14.13a86.25,86.25,0,0,1,23.54-1.72C330.21,299.72,331.94,318.58,331.94,318.59Z" style="fill:#f7a9a0"></path><path d="M315.16,308a18.66,18.66,0,0,0-7.6,2.93c-2.67,1.83-4.78,4.33-7.24,6.39a.07.07,0,1,0,.09.1c1.16-1.07,2.43-2,3.63-3s2.32-2,3.55-3a18.53,18.53,0,0,1,7.58-3.37S315.19,308,315.16,308Z" style="fill:#263238"></path><path d="M313,303.11a45.9,45.9,0,0,0-8.85,3.07c-3.05,1.55-5.43,4.08-7.77,6.51q-2.12,2.21-4.13,4.48c-.05.06,0,.17.09.1,2.38-2.51,4.83-5,7.36-7.32a24.37,24.37,0,0,1,8.07-5.09c1.72-.65,3.48-1.17,5.24-1.69A0,0,0,0,0,313,303.11Z" style="fill:#263238"></path><path d="M309.84,298.88c-2.91.6-5.46,1.11-8,2.67a41.58,41.58,0,0,0-7.87,6.78c-1.28,1.36-2.51,2.77-3.72,4.19-.05.06,0,.15.1.09a95.9,95.9,0,0,1,8.89-8.8,19.22,19.22,0,0,1,5-3.23,34.72,34.72,0,0,1,5.66-1.68S309.85,298.88,309.84,298.88Z" style="fill:#263238"></path><path d="M325.08,295.43l7,26.49S361,316.06,369,310.32s13.95-31.05,16-42-5.36-7.55-9.89-1.9-19.39,25-19.89,25.44S325.08,295.43,325.08,295.43Z" style="fill:#dbdbdb"></path><path d="M338.78,319.46c-.37-2-1-3.95-1.57-5.9s-1.11-3.84-1.68-5.75c-1.16-3.86-2.24-7.78-3.65-11.56a.07.07,0,1,0-.14,0c.78,4,2,7.91,3.12,11.81q.87,2.94,1.8,5.85a55,55,0,0,0,2,5.57C338.67,319.61,338.79,319.55,338.78,319.46Z" style="fill:#263238"></path><path d="M385,268.3c-2.1,11-8.09,36.28-16,42-4,2.87-13.17,5.77-21.4,7.95l33.87-56.9C384.2,260.41,386.2,261.93,385,268.3Z" style="fill:#c7c7c7"></path><path d="M417.53,329.73l-30.23-4.42-21.88-3.2-6.56-1,5-17.85,2.06-7.41s-3.61-6.23-1.86-11.6c2-6.08,18.26-22.61,19.52-23.41,5-3.19,10.52-3.4,15.27,3.17a52.28,52.28,0,0,1,5.84,12.07c1,2.61,1.89,5.44,2.77,8.37C413.45,304.53,417.53,329.73,417.53,329.73Z" style="fill:#dbdbdb"></path><path d="M382.59,298.14a51,51,0,0,0-7.28-1c-1.22,0-2.43,0-3.64,0h-1.82a8,8,0,0,1-1.89-.22,0,0,0,0,0,0,.09,13,13,0,0,0,1.72.49,12.7,12.7,0,0,0,1.74.2c1.23.07,2.47.08,3.7.14,2.49.11,5,.23,7.46.52C382.67,298.36,382.7,298.16,382.59,298.14Z" style="fill:#263238"></path><path d="M387.72,302a54.54,54.54,0,0,0-5.7-2.06c-1-.28-1.95-.51-2.94-.71-.48-.1-.95-.19-1.43-.27s-1.06-.11-1.58-.21c-.05,0-.08.08,0,.09.48.1,1,.29,1.44.43l1.46.4c1,.28,1.93.56,2.91.82,1.95.53,3.88,1.07,5.81,1.67C387.78,302.17,387.81,302,387.72,302Z" style="fill:#263238"></path><path d="M365.88,295.89a15.15,15.15,0,0,1-2.63-7.59,12,12,0,0,1,.44-4.08,18,18,0,0,1,1.73-3.72,49.62,49.62,0,0,1,4.92-6.42,68,68,0,0,1,5.72-5.67c-1.8,2-3.58,4-5.28,6a55.25,55.25,0,0,0-4.72,6.43,17.45,17.45,0,0,0-1.72,3.53,13.17,13.17,0,0,0-.52,3.86A17.13,17.13,0,0,0,365.88,295.89Z" style="fill:#263238"></path><path d="M374.54,268.89a13.17,13.17,0,0,1-1.91,3.05,13.46,13.46,0,0,1,.85-1.59A11.55,11.55,0,0,1,374.54,268.89Z" style="fill:#263238"></path><path d="M394,261.88c-.36,1-6.07,7.14-10.77,6.37-1.53-.25-.52-8.67-.52-8.67l-.07-.63-.94-8.94,11-5.38,1.58-.69s.1,2.46.19,5.52c0,.15,0,.29,0,.44s0,.34,0,.5c0,.46,0,.93.05,1.39s0,.7,0,1.07,0,.74,0,1.12A58.27,58.27,0,0,1,394,261.88Z" style="fill:#f7a9a0"></path><path d="M394.49,249.46A18,18,0,0,1,382.67,259l-.94-8.94,11-5.38,1.58-.69S394.4,246.4,394.49,249.46Z" style="fill:#263238"></path><path d="M382.73,259.61,384,267l10.32-6.8,1.8,3.28S384.9,275.4,385,274.77l-1.54-6.47-4.93,3.21L381,261.33Z" style="fill:#fff"></path><path d="M379.48,266.41c.47-1.67.9-3.36,1.45-5,0-.06.12-.07.12,0,0,1.7-1.86,8.07-2.18,9.62l0,0c.2-.14,4.52-2.78,4.55-2.72.41,1.06,1.55,5.78,1.61,6.2,1.77-1.9,9.17-9.27,11.16-11,.06-.05.14,0,.09.08C394.65,265.63,385,275.4,385,275.35a67.09,67.09,0,0,1-1.61-6.84,44.9,44.9,0,0,1-5.17,3.44A53,53,0,0,1,379.48,266.41Z" style="fill:#263238"></path><path d="M373.33,232c-7,14.14.72,19.91,3.77,21.41,2.77,1.36,12.37,5.64,20.77-7.7s4-21.06-2.15-24.51S380.3,217.81,373.33,232Z" style="fill:#f7a9a0"></path><path d="M376.53,230.5c.35.11.7.16,1.06.24a1.76,1.76,0,0,0,1.13,0,.56.56,0,0,0,.29-.62,1.41,1.41,0,0,0-1.11-.88,2,2,0,0,0-1.46.12A.6.6,0,0,0,376.53,230.5Z" style="fill:#263238"></path><path d="M386.35,235a9.37,9.37,0,0,1-.87-.65c-.34-.26-.63-.43-.77-.84a.58.58,0,0,1,.29-.62,1.38,1.38,0,0,1,1.38.29,2,2,0,0,1,.86,1.19A.6.6,0,0,1,386.35,235Z" style="fill:#263238"></path><path d="M382.45,237.48s.05.09,0,.13c-.51.94-.93,2.11-.21,2.86,0,0,0,.07,0,.05C381.24,239.85,381.82,238.3,382.45,237.48Z" style="fill:#263238"></path><path d="M383.8,236.9c1.61.65.2,3.82-1.29,3.22S382.46,236.36,383.8,236.9Z" style="fill:#263238"></path><path d="M384.35,237.35c.2.3.33.74.64.92s.81,0,1.21-.2c0,0,.05,0,0,.06-.26.61-.77,1.13-1.46.93s-.81-.91-.69-1.58C384.1,237.35,384.27,237.23,384.35,237.35Z" style="fill:#263238"></path><path d="M377.09,234.84s-.1,0-.11.06c-.4,1-1,2.07-2.06,2,0,0-.05.05,0,.05C376.06,237.29,376.87,235.85,377.09,234.84Z" style="fill:#263238"></path><path d="M376.66,233.43c-1.53-.81-3,2.31-1.62,3.06S378,234.11,376.66,233.43Z" style="fill:#263238"></path><path d="M375.91,233.32c-.32.05-.71.23-1,.11s-.44-.61-.5-1c0,0,0,0-.06,0a1.3,1.3,0,0,0,.1,1.69c.48.36,1.11,0,1.54-.49C376.05,233.51,376,233.3,375.91,233.32Z" style="fill:#263238"></path><path d="M379,245.58a1.68,1.68,0,0,1-1.08.26,2.84,2.84,0,0,1-1-.68,0,0,0,0,0-.06,0,1.44,1.44,0,0,0,1.05,1,1.14,1.14,0,0,0,1.13-.58S379,245.56,379,245.58Z" style="fill:#263238"></path><path d="M376.51,240.18s-.87,1.36-1.19,2c0,.06.13.17.35.29,0,0,0,0,0,0a3.59,3.59,0,0,0,3.73.25.08.08,0,0,0-.05-.15,5.39,5.39,0,0,1-3.38-.52c0-.21,1.57-2.28,1.47-2.34a6.6,6.6,0,0,0-1.73-.37c1.74-2.89,3.92-5.48,5.61-8.39a.1.1,0,0,0-.16-.12,54.71,54.71,0,0,0-6.42,8.78C374.53,240,376.19,240.17,376.51,240.18Z" style="fill:#263238"></path><path d="M397.06,244.9c-2.9-.47-1.74-7.07-1.74-7.07s-11.3-5.5-9.46-15.48a17.1,17.1,0,0,1-10.9,6.54s3.53-10.49,12.55-10.09c0,0,11.56-.74,15,9.27S399,245.21,397.06,244.9Z" style="fill:#263238"></path><path d="M386,221.62a10.94,10.94,0,0,0-.76,4.58,11.32,11.32,0,0,0,1.1,4.56,9.42,9.42,0,0,0,.56,1l.3.51c.11.17.23.32.35.48.25.31.48.63.74.92s.55.56.83.83.28.28.43.4l.46.36.93.71c.66.41,1.34.79,2,1.15-.59-.5-1.22-.93-1.8-1.43l-.85-.76-.42-.39c-.13-.13-.25-.28-.37-.42s-.5-.57-.76-.85-.43-.61-.65-.91l-.33-.45-.28-.49a10.41,10.41,0,0,1-.52-1,13.12,13.12,0,0,1-1.2-4.31,14.32,14.32,0,0,1-.05-2.27A13.54,13.54,0,0,1,386,221.62Z" style="fill:#263238"></path><path d="M395,250.16a2.83,2.83,0,0,1-.74-.09,2.31,2.31,0,0,1-.7-.25,2.14,2.14,0,0,1-.74-.6,2.44,2.44,0,0,1-.39-.65,2.88,2.88,0,0,1-.24-1l2.34-3.61s5-3.33,6.63-1.38S397.78,250.21,395,250.16Z" style="fill:#f7a9a0"></path><path d="M399.67,244.14a0,0,0,0,1,0,.07c-2,0-3.5,1.27-4.78,2.67a1.47,1.47,0,0,1,2.2.42s0,.1-.08.08a1.64,1.64,0,0,0-1.89-.13,8,8,0,0,0-1.34,1.05c-.14.12-.38-.07-.25-.22l0,0C394.35,245.84,397.24,243.45,399.67,244.14Z" style="fill:#263238"></path><path d="M395,249.47a.74.74,0,0,1-1,.22.73.73,0,1,1,1-.22Z" style="fill:#fff"></path><path d="M396.82,249a.51.51,0,1,1-.16-.71A.52.52,0,0,1,396.82,249Z" style="fill:#fff"></path><path d="M376.27,290.31s8.55-15.5,13.41-23.45,9.5-6.55,9.86,2.75,3.1,21.24-5.59,36.48C371.43,345.57,376.27,290.31,376.27,290.31Z" style="fill:#dbdbdb"></path><path d="M394.77,237.8,373,253.14a.92.92,0,0,0-.25,1.6l7.09,9.47a2.16,2.16,0,0,0,2.3.16L403.91,249a.92.92,0,0,0,.25-1.59L397.07,238A2.16,2.16,0,0,0,394.77,237.8Z" style="fill:#a6a6a6"></path><path d="M395.41,238.57l-21.77,15.34a.93.93,0,0,0-.25,1.6l7.1,9.47a2.14,2.14,0,0,0,2.29.16l21.77-15.34a.92.92,0,0,0,.26-1.59l-7.1-9.47A2.16,2.16,0,0,0,395.41,238.57Z" style="fill:#dbdbdb"></path><path d="M397.41,241.85a1.13,1.13,0,1,1-.08-1.6A1.14,1.14,0,0,1,397.41,241.85Z" style="fill:#263238"></path><path d="M370.65,313.77c.07,8.28,11.21,9.46,15,5.66,8.88-8.9,16.18-27.63,19.43-38.52,1.05-3.5-22.17-11.74-23.86-8.22C379.17,276.92,370.51,297.55,370.65,313.77Z" style="fill:#f7a9a0"></path><path d="M399.7,286.89A36.42,36.42,0,0,0,409,274.5c2.28-5.24,6-17.18-4-31-2.38-3.28-8.08-6.26-6.15.49,1.38,4.8,3.69,7.43,4,10.36,0,0-7.7-2.93-10.88-.43a75.31,75.31,0,0,0-7.87,7.14,16.58,16.58,0,0,0,1.21,1.59,19.63,19.63,0,0,0-4,10Z" style="fill:#f7a9a0"></path><path d="M410.34,269.15c-.91-2.85-2.92-8.87-6.28-13.21-3.74-4.83-12.23-13.12-15.76-10.33-2.6,2,.37,5.5.37,5.5s-4.23-2.69-6.17-.33c-1.77,2.15.69,4.69.69,4.69s-2.85-1.19-4.15,1.21c-1.57,2.88,4.66,4.9,5.6,9.2C384.85,266.84,410.34,269.15,410.34,269.15Z" style="fill:#f7a9a0"></path><path d="M399.61,260.73a24.29,24.29,0,0,0-10.82-9.64c-.11-.05-.21,0-.11.08a59.84,59.84,0,0,1,10.89,9.6S399.63,260.76,399.61,260.73Z" style="fill:#263238"></path><path d="M394.63,264.36c-1.34-2.08-6.12-7.06-11.38-9-.11,0-.21,0-.11.08a64.42,64.42,0,0,1,11.45,8.94S394.65,264.39,394.63,264.36Z" style="fill:#263238"></path><path d="M369.51,315.16c.45,8.33,12,9.67,16,5.9,9.31-8.85,16.81-27.62,20.13-38.54L379,274.3C376.87,278.53,368.65,299.35,369.51,315.16Z" style="fill:#dbdbdb"></path><path d="M380.29,274.7l-1.32-.38h0c-1.55,4.15-2.94,8.38-4.22,12.62s-2.45,8.54-3.38,12.87-1.78,8.72-1.66,13.11a12.44,12.44,0,0,0,1.59,6.2,6.76,6.76,0,0,0,2.24,2.18,9.23,9.23,0,0,0,3,1.06,11.35,11.35,0,0,0,6.35-.5,15.19,15.19,0,0,0,5.27-3.73,46.73,46.73,0,0,0,7.21-11c2-4,3.68-8.07,5.44-12.15s3.49-8.17,4.79-12.42h0l-.84-.29.85.27h0c-.56,2.16-1.32,4.25-2.08,6.34s-1.56,4.16-2.38,6.22c-1.7,4.11-3.35,8.24-5.27,12.26a58.72,58.72,0,0,1-3.2,5.88,33.39,33.39,0,0,1-4,5.37,15.67,15.67,0,0,1-5.5,3.93,12.06,12.06,0,0,1-6.75.56,9.62,9.62,0,0,1-3.24-1.16,7.39,7.39,0,0,1-2.48-2.43,13.2,13.2,0,0,1-1.66-6.56,38.46,38.46,0,0,1,.49-6.7c.33-2.21.79-4.38,1.28-6.56A173.2,173.2,0,0,1,379,274.29h0Z" style="fill:#263238"></path><path d="M389.41,285.55c-2-.57-9.91-2.71-11.93-3-.06,0-.08.11,0,.13,1.87.84,9.77,3.22,11.75,3.79a119.92,119.92,0,0,0,12,3c.09,0,.14-.14.06-.17A119.43,119.43,0,0,0,389.41,285.55Z" style="fill:#263238"></path></g></svg>